<?xml version="1.0" standalone="no"?>
<!DOCTYPE svg PUBLIC "-//W3C//DTD SVG 20010904//EN"
 "http://www.w3.org/TR/2001/REC-SVG-20010904/DTD/svg10.dtd">
<svg version="1.0" xmlns="http://www.w3.org/2000/svg"
 width="400.000000pt" height="400.000000pt" viewBox="0 0 400.000000 400.000000"
 preserveAspectRatio="xMidYMid meet">

<g transform="translate(0.000000,400.000000) scale(0.100000,-0.100000)"
fill="#000000" stroke="none">
<path d="M1961 3876 c-17 -62 -31 -116 -31 -120 0 -3 32 -6 71 -6 62 0 70 2
65 18 -25 87 -68 222 -70 222 -2 0 -18 -51 -35 -114z"/>
<path d="M1500 3750 l0 -72 32 6 c18 3 35 10 39 14 3 4 -11 34 -32 66 l-39 59
0 -73z"/>
<path d="M2457 3760 l-37 -60 25 -10 c51 -20 55 -15 55 60 0 39 -1 70 -3 70
-1 0 -19 -27 -40 -60z"/>
<path d="M1820 3699 c-257 -29 -505 -115 -718 -247 -388 -241 -670 -637 -767
-1077 -8 -38 -18 -80 -20 -92 -4 -16 -1 -23 10 -23 8 0 17 10 19 23 3 12 10
47 16 77 65 313 252 641 492 865 421 392 1003 543 1554 404 303 -76 550 -216
774 -439 256 -254 401 -530 476 -907 2 -13 11 -23 18 -23 30 0 -38 255 -115
433 -73 169 -188 341 -324 485 -357 379 -901 579 -1415 521z"/>
<path d="M1820 3633 c-14 -2 -65 -11 -113 -19 -198 -32 -440 -131 -622 -253
-145 -97 -322 -268 -423 -411 -128 -180 -238 -441 -276 -657 l-5 -33 43 0 c43
0 43 0 50 42 32 197 143 445 283 633 360 479 972 711 1558 590 196 -41 429
-143 587 -257 320 -232 545 -576 619 -945 l13 -63 44 0 c36 0 43 3 38 18 -2 9
-8 37 -12 62 -11 70 -70 250 -114 346 -86 187 -198 341 -362 499 -250 242
-545 386 -901 441 -84 12 -346 17 -407 7z"/>
<path d="M1770 3524 c-379 -59 -718 -254 -967 -554 -150 -181 -257 -410 -317
-682 l-6 -28 489 0 489 0 7 53 c3 28 14 78 22 110 13 46 20 58 40 63 14 4 120
5 237 2 l213 -4 59 -45 c32 -25 80 -57 106 -72 41 -24 49 -33 54 -67 l7 -40
658 0 659 0 -6 28 c-75 339 -199 568 -434 802 -223 223 -468 356 -775 422
-125 26 -406 33 -535 12z m465 -110 c168 -27 356 -95 499 -181 232 -140 453
-383 561 -617 39 -84 108 -283 103 -298 -2 -5 -20 24 -41 65 -21 40 -50 86
-66 101 l-29 27 -7 -38 -7 -38 -18 55 c-22 65 -41 81 -79 70 -44 -12 -65 -26
-86 -59 -11 -17 -25 -31 -31 -31 -6 0 -25 16 -43 35 -33 37 -163 107 -218 120
-18 3 -41 17 -52 31 -10 13 -21 24 -23 24 -2 0 -5 -21 -7 -47 -1 -26 -5 -50
-8 -53 -3 -3 -29 21 -58 53 -55 60 -65 60 -65 -1 0 -50 -11 -56 -71 -37 -30 9
-60 19 -67 22 -8 3 -3 -16 12 -51 14 -31 22 -56 18 -56 -3 0 -25 19 -48 41
l-43 42 -11 -44 c-27 -103 -38 -134 -46 -134 -5 0 -48 15 -95 34 l-87 33 -75
117 c-44 68 -82 141 -93 176 -19 65 -34 91 -34 59 0 -43 -35 -79 -94 -97 -32
-10 -95 -34 -142 -54 -75 -31 -92 -44 -168 -124 l-85 -89 -49 30 c-59 36 -66
37 -79 8 -11 -23 -11 -23 -23 7 -12 29 -12 30 -21 8 -4 -13 -17 -23 -27 -23
-10 0 -26 -13 -35 -30 -26 -43 -35 -37 -27 15 8 52 6 55 -32 55 -20 0 -28 5
-28 18 -1 12 -16 1 -49 -35 -26 -29 -51 -53 -55 -53 -4 0 -4 21 0 46 6 44 6
46 -15 39 -15 -5 -21 -2 -21 9 0 9 -3 16 -7 15 -5 0 -84 -53 -178 -118 -93
-65 -171 -113 -173 -106 -4 15 52 173 94 264 82 178 259 396 424 520 134 102
244 161 396 214 229 80 467 100 709 61z"/>
<path d="M3265 3309 c-27 -16 -54 -30 -60 -32 -5 -3 5 -19 23 -37 18 -18 34
-31 36 -29 12 13 65 129 59 128 -5 -1 -30 -14 -58 -30z"/>
<path d="M686 3278 c41 -82 43 -84 76 -47 16 17 28 33 26 34 -2 1 -31 17 -66
34 l-63 32 27 -53z"/>
<path d="M3670 2506 c0 0 6 -20 13 -43 l13 -43 57 36 c32 20 57 37 55 39 -3 2
-138 14 -138 11z"/>
<path d="M190 2496 c0 -5 112 -78 114 -74 1 2 7 20 13 41 l11 37 -69 0 c-38 0
-69 -2 -69 -4z"/>
<path d="M1527 2443 c-4 -3 -7 -21 -7 -40 l0 -33 70 0 70 0 0 40 0 40 -63 0
c-35 0 -67 -3 -70 -7z"/>
<path d="M1680 2410 l0 -40 90 0 90 0 0 40 0 40 -90 0 -90 0 0 -40z"/>
<path d="M1890 2415 c0 -43 9 -47 86 -43 l58 3 -33 38 c-28 31 -40 37 -72 37
-38 0 -39 -1 -39 -35z"/>
<path d="M1568 2279 c-21 -12 -24 -69 -6 -87 21 -21 66 -14 83 12 34 51 -23
107 -77 75z"/>
<path d="M2027 2272 c-25 -28 -21 -69 8 -88 44 -29 92 8 79 61 -11 44 -59 58
-87 27z"/>
<path d="M10 2261 c0 -3 34 -58 76 -123 l76 -118 -76 -138 c-42 -76 -76 -141
-76 -143 0 -2 40 -4 90 -4 l90 0 0 214 0 213 40 49 41 48 -131 3 c-71 2 -130
1 -130 -1z"/>
<path d="M3730 2261 c0 -2 18 -25 40 -51 l40 -48 0 -211 0 -211 91 0 c49 0 88
3 86 8 -2 4 -36 64 -76 134 -62 109 -71 129 -61 147 6 12 38 64 70 116 33 51
61 99 62 105 2 7 -38 11 -125 13 -70 1 -127 0 -127 -2z"/>
<path d="M1768 2118 c-48 -36 -41 -105 17 -169 46 -51 60 -86 46 -116 -19 -41
-71 -23 -71 24 0 13 -4 23 -10 23 -5 0 -10 -20 -10 -45 l0 -45 49 0 c59 0 81
22 81 83 0 46 -11 68 -62 126 -39 45 -48 77 -26 99 19 19 28 14 46 -25 l17
-38 3 39 c4 44 6 42 -33 50 -19 4 -37 2 -47 -6z"/>
<path d="M347 2113 c-3 -5 -17 -71 -32 -148 -15 -77 -31 -144 -36 -150 -16
-17 -9 -25 21 -25 31 0 37 9 20 26 -19 19 6 64 34 64 26 0 42 -36 31 -71 -6
-17 -1 -19 36 -19 34 0 39 3 30 14 -6 7 -22 71 -36 142 -14 71 -28 139 -31
152 -4 21 -28 30 -37 15z m22 -185 c1 -22 -4 -28 -19 -28 -23 0 -24 10 -8 65
11 38 12 39 19 15 4 -14 7 -37 8 -52z"/>
<path d="M2895 1955 l0 -165 53 0 c43 0 58 5 77 25 36 35 35 96 -2 124 l-26
21 21 23 c33 35 38 77 12 110 -19 24 -28 27 -78 27 l-57 0 0 -165z m95 126
c15 -29 12 -72 -7 -93 -27 -30 -33 -21 -33 47 0 50 3 65 15 65 8 0 19 -9 25
-19z m-2 -143 c7 -7 12 -33 12 -60 0 -37 -4 -50 -19 -58 -11 -5 -22 -10 -25
-10 -3 0 -6 32 -6 70 0 71 10 86 38 58z"/>
<path d="M570 2005 l1 -30 14 25 c12 22 14 23 20 8 4 -10 5 -63 3 -118 -3 -95
-2 -100 17 -100 19 0 20 5 17 106 -4 108 8 153 26 104 5 -14 11 -19 15 -13 4
6 4 19 0 30 -6 14 -19 18 -60 18 -52 1 -53 1 -53 -30z"/>
<path d="M1210 2005 c1 -25 2 -27 11 -12 23 40 31 16 27 -93 -3 -104 -2 -110
17 -110 19 0 20 5 17 106 -3 70 0 110 7 117 9 9 13 6 17 -11 8 -28 23 -20 17
10 -4 21 -10 23 -59 23 -53 0 -54 0 -54 -30z"/>
<path d="M2183 2028 c-30 -39 -22 -79 28 -136 21 -23 29 -42 27 -60 -5 -41
-35 -41 -53 0 l-14 33 -1 -36 c0 -31 4 -37 25 -42 38 -7 69 22 69 66 0 26 -10
48 -37 83 -39 50 -46 78 -22 88 9 3 20 -5 29 -22 l15 -27 1 26 c0 36 -46 54
-67 27z"/>
<path d="M2312 2020 c-42 -46 -36 -192 9 -224 48 -33 87 20 88 119 1 96 -52
153 -97 105z m58 -106 c0 -90 -5 -114 -25 -114 -7 0 -16 7 -19 16 -10 26 -7
161 5 191 10 27 11 27 25 9 9 -13 14 -47 14 -102z"/>
<path d="M3642 2028 c-24 -24 -14 -80 24 -128 23 -29 34 -52 32 -69 -5 -39
-35 -39 -52 1 l-14 33 -1 -36 c-1 -32 2 -37 26 -42 19 -3 33 2 51 20 31 32 25
70 -23 132 -39 49 -42 63 -21 80 12 10 17 7 29 -15 10 -19 15 -23 20 -12 3 8
2 20 -2 26 -10 17 -55 24 -69 10z"/>
<path d="M475 1910 l0 -120 48 0 c47 0 47 0 46 33 0 28 -1 29 -9 11 -10 -24
-28 -39 -37 -30 -3 3 -6 55 -5 116 1 107 1 110 -21 110 -22 0 -22 -3 -22 -120z"/>
<path d="M705 1910 l0 -120 53 0 c51 0 52 0 52 30 0 37 -7 38 -20 4 -7 -16
-16 -24 -28 -22 -13 2 -18 15 -20 56 -2 32 1 52 7 52 6 0 11 -4 11 -10 0 -5 5
-10 10 -10 6 0 10 14 10 32 0 25 -3 29 -12 20 -21 -21 -28 -13 -28 33 0 37 3
45 18 45 11 0 24 -10 30 -22 10 -23 11 -23 11 5 1 26 -1 27 -46 27 l-48 0 0
-120z"/>
<path d="M825 1910 l0 -120 25 0 c24 0 25 2 22 56 -4 61 11 69 23 11 12 -59
16 -67 35 -67 16 0 17 4 8 33 -6 17 -16 45 -24 60 -12 25 -11 30 6 47 24 24
25 48 4 78 -11 17 -25 22 -57 22 l-42 0 0 -120z m70 60 c0 -26 -5 -45 -12 -47
-9 -3 -13 10 -13 47 0 37 4 50 13 48 7 -3 12 -22 12 -48z"/>
<path d="M965 1910 c0 -100 2 -120 15 -120 12 0 14 11 12 53 -2 30 -2 67 0 83
3 25 7 18 32 -46 16 -41 33 -79 37 -85 5 -5 9 37 9 97 0 59 3 113 6 122 4 11
0 16 -12 16 -17 0 -19 -7 -17 -62 l3 -63 -23 60 c-16 43 -28 61 -42 63 -19 3
-20 -3 -20 -118z"/>
<path d="M1145 2018 c-2 -7 -11 -51 -21 -98 -9 -46 -20 -95 -25 -107 -7 -19
-5 -23 12 -23 15 0 19 5 15 18 -8 24 8 45 30 40 14 -3 18 -11 17 -31 -2 -24 2
-27 28 -27 25 0 28 3 20 18 -5 9 -16 55 -26 102 -9 47 -19 93 -21 103 -6 20
-23 23 -29 5z m18 -115 c6 -28 4 -33 -12 -33 -15 0 -18 5 -14 23 13 58 17 60
26 10z"/>
<path d="M1345 1910 c0 -113 1 -120 20 -120 19 0 20 7 20 120 0 113 -1 120
-20 120 -19 0 -20 -7 -20 -120z"/>
<path d="M1414 2015 c5 -13 46 -210 46 -221 0 -2 4 -4 8 -4 5 0 17 44 27 98
10 53 22 107 26 120 7 17 5 22 -9 22 -14 0 -18 -9 -20 -43 -1 -24 -5 -54 -10
-67 -7 -19 -10 -14 -21 34 -7 30 -10 60 -6 66 4 6 -5 10 -20 10 -20 0 -26 -4
-21 -15z"/>
<path d="M1545 1910 l0 -120 53 0 c51 0 52 0 52 30 0 37 -7 38 -20 4 -7 -16
-16 -24 -28 -22 -13 2 -18 15 -20 56 -3 52 4 62 26 40 9 -9 12 -4 12 23 -1 28
-2 31 -11 16 -16 -27 -29 -10 -29 39 0 38 3 44 20 44 12 0 24 -10 30 -22 8
-22 9 -22 9 5 1 26 -1 27 -46 27 l-48 0 0 -120z"/>
<path d="M1895 1910 l0 -120 53 0 c49 0 52 2 52 25 0 30 -16 33 -25 5 -3 -11
-15 -20 -26 -20 -16 0 -19 7 -19 55 0 30 5 55 10 55 6 0 10 -4 10 -10 0 -5 5
-10 10 -10 6 0 10 15 10 33 -1 29 -2 30 -14 15 -18 -24 -26 -12 -26 39 0 35 3
43 18 43 11 0 24 -10 30 -22 10 -23 11 -23 11 5 1 26 -1 27 -46 27 l-48 0 0
-120z"/>
<path d="M2065 2018 c-2 -7 -12 -56 -21 -108 -9 -52 -21 -101 -26 -107 -8 -10
-4 -13 17 -13 22 0 25 3 16 14 -17 20 -2 46 26 46 22 0 25 -3 21 -30 -4 -27
-2 -30 24 -30 20 0 27 4 22 12 -4 7 -17 59 -29 117 -19 95 -38 134 -50 99z
m24 -135 c1 -7 -6 -13 -14 -13 -16 0 -22 50 -8 64 7 7 20 -23 22 -51z"/>
<path d="M2435 1910 c0 -100 2 -120 15 -120 13 0 15 14 12 83 -2 45 -1 79 2
76 4 -4 19 -38 34 -77 15 -39 32 -72 37 -74 6 -2 11 42 13 115 2 106 1 117
-15 117 -15 0 -18 -8 -15 -57 l2 -58 -23 55 c-15 37 -30 56 -43 58 -18 3 -19
-4 -19 -118z"/>
<path d="M2615 2018 c-2 -7 -11 -53 -20 -103 -10 -49 -21 -98 -27 -107 -7 -15
-5 -18 12 -18 12 0 20 6 19 13 -5 36 2 48 24 45 17 -2 22 -9 22 -30 l-1 -28
83 0 83 0 0 30 c0 37 -7 38 -20 5 -5 -14 -17 -25 -25 -25 -14 0 -16 15 -13
115 3 109 2 115 -17 115 -19 0 -20 -5 -17 -106 3 -67 0 -110 -7 -117 -17 -17
-22 -5 -42 95 -11 51 -22 101 -25 111 -6 20 -23 23 -29 5z m21 -145 c-2 -3
-11 -3 -18 -1 -12 2 -13 10 -5 38 l10 35 9 -34 c5 -18 7 -35 4 -38z"/>
<path d="M3075 1910 c0 -115 1 -120 21 -120 19 0 20 4 16 55 -5 67 12 75 28
13 17 -66 18 -68 39 -68 18 0 18 2 5 43 -8 23 -19 50 -25 60 -8 15 -7 22 6 31
20 14 23 69 5 91 -7 9 -29 15 -54 15 l-41 0 0 -120z m73 81 c5 -35 -7 -71 -24
-71 -12 0 -14 11 -13 50 2 40 6 50 18 48 9 -2 17 -14 19 -27z"/>
<path d="M3215 1910 l0 -120 53 0 c51 0 52 0 52 30 0 36 -15 40 -24 5 -4 -16
-13 -25 -26 -25 -18 0 -20 7 -20 55 0 30 5 55 10 55 6 0 10 -4 10 -10 0 -5 5
-10 10 -10 6 0 10 15 10 33 -1 29 -2 30 -14 15 -18 -24 -26 -12 -26 39 0 35 3
43 18 43 11 0 24 -10 30 -22 10 -23 11 -23 11 5 1 26 -1 27 -46 27 l-48 0 0
-120z"/>
<path d="M3386 2018 c-2 -7 -12 -53 -21 -103 -9 -49 -21 -98 -26 -107 -8 -15
-5 -18 17 -18 21 0 24 3 15 14 -17 20 -2 46 26 46 22 0 25 -3 21 -30 -4 -27
-2 -30 24 -30 20 0 27 4 22 12 -4 7 -17 59 -29 117 -19 95 -38 134 -49 99z
m23 -135 c1 -7 -6 -13 -14 -13 -16 0 -20 26 -8 57 6 16 8 15 14 -7 4 -14 7
-31 8 -37z"/>
<path d="M3485 1910 c0 -115 1 -120 21 -120 19 0 20 5 17 58 l-3 57 20 -43
c10 -23 17 -49 14 -57 -5 -11 2 -15 26 -15 24 0 30 3 23 13 -11 14 -53 129
-53 144 0 6 11 27 25 47 l24 36 -25 0 c-14 0 -22 -4 -19 -10 6 -10 -21 -70
-32 -70 -3 0 -3 18 0 40 5 36 3 40 -16 40 -21 0 -22 -4 -22 -120z"/>
<path d="M320 1704 c0 -72 77 -308 150 -459 114 -235 312 -471 526 -627 210
-153 486 -266 759 -310 116 -18 409 -16 520 5 528 99 952 394 1209 844 108
187 233 573 187 573 -13 0 -12 6 -41 -125 -127 -567 -581 -1045 -1153 -1215
-175 -52 -263 -64 -477 -64 -214 0 -302 12 -478 64 -573 170 -1023 645 -1152
1215 -29 130 -28 125 -40 125 -5 0 -10 -12 -10 -26z"/>
<path d="M387 1722 c-9 -14 51 -229 94 -336 128 -324 385 -624 683 -798 479
-281 1058 -304 1551 -63 202 98 365 223 524 401 162 181 294 439 354 689 31
128 33 115 -15 115 l-43 0 -24 -97 c-57 -240 -164 -448 -333 -648 -75 -88
-195 -202 -204 -193 -2 3 37 45 87 94 214 208 349 434 424 708 36 132 36 136
-25 136 l-49 0 -10 -42 c-61 -255 -186 -487 -359 -670 -284 -298 -635 -449
-1040 -449 -210 0 -358 28 -541 102 -323 132 -615 406 -757 714 -33 71 -94
251 -109 318 -5 25 -9 27 -55 27 -60 0 -60 -2 -29 -123 69 -272 216 -517 438
-729 110 -106 122 -132 19 -43 -232 201 -431 539 -488 833 l-13 62 -38 0 c-21
0 -40 -3 -42 -8z m2478 -954 c-6 -17 -4 -20 10 -14 13 5 16 2 11 -10 -9 -23 3
-37 20 -23 10 8 14 8 14 0 0 -10 -4 -12 -30 -15 -6 -1 -19 12 -30 29 -14 21
-16 33 -8 42 15 19 20 16 13 -9z m-1705 -3 c26 -31 -31 -90 -59 -62 -16 16
-14 38 6 59 20 22 36 23 53 3z m1651 -29 c-14 -17 2 -31 22 -20 9 5 9 4 0 -6
-8 -9 -9 -19 -2 -32 5 -10 6 -18 2 -18 -5 0 -17 15 -27 34 -18 34 -16 56 6 56
7 0 6 -5 -1 -14z m-1596 -45 c0 -22 -4 -43 -8 -47 -4 -4 -7 8 -7 27 l0 34 -20
-25 c-26 -33 -26 -16 1 21 27 39 34 37 34 -10z m25 -2 c-7 -11 -14 -18 -17
-15 -3 3 0 12 7 21 18 21 23 19 10 -6z m1551 -31 c5 -10 6 -18 2 -18 -10 0
-43 53 -43 67 1 9 26 -21 41 -49z m-1491 22 c13 -8 12 -10 -4 -10 -11 0 -16
-5 -13 -14 4 -9 -3 -16 -15 -20 -18 -4 -19 -7 -8 -21 11 -13 10 -15 -4 -9 -20
8 -20 6 1 49 18 38 21 39 43 25z m1452 -60 c9 0 8 -3 -2 -10 -11 -7 -19 -2
-32 23 -24 44 -22 59 2 20 11 -18 25 -33 32 -33z m-1387 -12 c-5 -25 -4 -29 4
-18 6 8 11 10 11 5 0 -12 -20 -35 -31 -35 -4 0 -2 18 3 40 12 48 22 54 13 8z
m1281 15 c3 -10 10 -26 15 -35 11 -21 -1 -24 -20 -5 -11 10 -13 8 -8 -10 3
-13 3 -23 1 -23 -9 0 -35 63 -30 76 8 20 36 17 42 -3z m-1240 -25 l-6 -33 20
24 c27 32 25 17 -2 -22 l-23 -32 -6 35 c-3 19 -1 41 4 48 16 20 20 14 13 -20z
m1184 -51 c0 -29 -31 -33 -52 -8 -10 13 -18 31 -17 40 0 9 7 2 17 -17 8 -18
21 -31 26 -29 11 4 12 15 1 57 l-6 25 15 -25 c8 -14 15 -33 16 -43z m-1095 43
c4 -6 1 -9 -7 -8 -7 2 -12 -5 -12 -14 1 -10 -3 -18 -8 -18 -6 0 -8 -9 -5 -20
3 -11 1 -20 -3 -20 -18 0 -19 19 -5 54 15 36 28 45 40 26z m1005 -43 c13 -24
13 -28 -3 -44 -13 -14 -21 -15 -35 -7 -21 14 -28 64 -10 75 19 12 31 6 48 -24z
m-949 12 c-20 -8 -21 -12 -10 -25 10 -12 10 -15 -1 -12 -7 2 -15 -3 -17 -9 -3
-7 0 -13 6 -13 6 0 11 -4 11 -10 0 -5 -7 -7 -15 -4 -30 12 -5 84 29 83 20 0
19 -1 -3 -10z m858 -46 c0 -27 -3 -41 -6 -33 -3 8 -15 29 -26 45 l-21 30 22
-19 c22 -19 22 -19 22 2 0 12 2 22 5 22 3 0 5 -21 4 -47z m-782 27 c17 14 17
14 0 -6 -12 -15 -16 -31 -12 -50 5 -28 5 -28 -5 -4 -9 20 -13 22 -20 10 -9
-13 -10 -13 -10 0 0 8 3 26 7 38 4 17 8 20 14 11 6 -10 11 -10 26 1z m95 -22
c-7 -7 -12 -22 -12 -34 0 -13 -5 -26 -12 -30 -8 -5 -9 -2 -5 10 4 10 7 29 7
42 0 16 6 24 17 24 13 0 14 -3 5 -12z m581 5 c-7 -2 -13 -11 -13 -19 0 -10 5
-12 13 -8 8 6 8 3 -1 -9 -17 -20 -7 -38 16 -31 15 5 14 4 -1 -6 -23 -15 -27
-11 -37 34 -8 38 -5 46 19 45 10 0 12 -2 4 -6z m-503 -19 c18 -21 1 -69 -24
-69 -29 0 -42 28 -28 59 13 29 33 33 52 10z m428 9 c-22 -6 -30 -30 -18 -54
14 -25 34 -25 27 1 -3 11 -2 20 3 20 15 0 19 -41 4 -47 -23 -8 -43 4 -50 32
-7 29 10 56 35 54 14 -1 14 -2 -1 -6z m-312 -15 c4 -7 4 -10 -1 -6 -12 11 -35
-11 -35 -34 0 -10 10 -23 23 -28 22 -10 22 -10 -3 -7 -19 1 -26 8 -28 30 -5
42 27 74 44 45z m253 -58 c1 -21 -1 -22 -13 -10 -9 10 -12 27 -8 50 5 33 6 34
13 10 4 -14 7 -36 8 -50z m-209 -2 c-7 -19 -9 -15 -9 22 0 37 2 41 9 23 6 -14
6 -32 0 -45z m39 20 c0 -31 -3 -37 -8 -24 -7 18 -3 66 5 66 2 0 4 -19 3 -42z
m80 -7 c9 -29 9 -32 -4 -21 -8 7 -13 16 -10 20 3 5 1 11 -5 15 -5 3 -10 -3
-10 -14 0 -11 -5 -23 -11 -27 -8 -4 -9 1 -4 17 3 13 9 32 12 43 6 22 17 12 32
-33z m55 33 c8 -22 8 -26 -3 -19 -5 3 -12 -7 -14 -22 -3 -20 -4 -16 -6 15 -1
42 11 56 23 26z"/>
<path d="M1117 752 c-23 -25 -21 -42 3 -42 21 0 45 34 35 50 -9 15 -20 12 -38
-8z"/>
<path d="M2612 621 c4 -13 18 -16 19 -4 0 4 -5 9 -11 12 -7 2 -11 -2 -8 -8z"/>
<path d="M2454 555 c-8 -19 5 -46 24 -53 17 -5 15 43 -3 58 -12 10 -16 9 -21
-5z"/>
<path d="M1758 485 c-8 -18 -8 -29 -1 -36 17 -17 33 -1 33 32 0 36 -16 38 -32
4z"/>
<path d="M636 1698 c16 -90 129 -378 148 -378 4 0 490 -164 517 -175 12 -5 18
6 28 52 8 32 42 143 77 248 35 104 60 192 56 196 -4 3 -58 25 -120 47 l-113
42 -299 0 -299 0 5 -32z"/>
<path d="M1863 1676 c-96 -28 -123 -41 -185 -88 -87 -66 -138 -112 -138 -126
0 -18 43 -42 76 -42 41 0 132 32 180 63 50 33 159 55 185 39 10 -7 120 -91
244 -187 207 -163 274 -224 304 -283 12 -22 12 -22 74 30 34 28 81 60 105 70
23 10 42 25 42 33 0 20 -68 210 -100 282 -16 34 -43 83 -60 108 l-32 47 -47
-7 c-47 -6 -63 -3 -371 76 -101 25 -145 23 -277 -15z"/>
<path d="M241 1541 l-55 -36 65 -6 c35 -4 67 -5 71 -3 7 5 -10 64 -21 75 -3 3
-30 -10 -60 -30z"/>
<path d="M3683 1540 c-6 -22 -8 -42 -4 -43 3 -1 35 0 71 3 l65 5 -58 38 c-31
20 -59 37 -60 37 -2 0 -8 -18 -14 -40z"/>
<path d="M1365 1070 c-3 -5 -7 -28 -8 -50 -1 -44 20 -69 61 -70 31 0 62 17 62
35 0 13 -86 95 -101 95 -4 0 -11 -4 -14 -10z"/>
<path d="M1496 979 c-33 -50 -32 -94 4 -120 37 -28 67 -15 95 42 28 53 23 89
-14 108 -36 20 -58 12 -85 -30z"/>
<path d="M1617 908 c-33 -52 -34 -82 -2 -113 39 -40 73 -28 105 35 25 50 25
75 0 100 -34 34 -72 26 -103 -22z"/>
<path d="M1730 797 c-37 -19 -36 -44 2 -84 31 -33 35 -35 87 -30 29 3 55 8 57
10 5 5 -103 117 -113 117 -5 0 -19 -6 -33 -13z"/>
<path d="M3236 768 c-16 -15 -27 -30 -25 -32 2 -2 33 -18 68 -36 l64 -32 -33
59 c-18 32 -35 61 -39 64 -3 3 -19 -7 -35 -23z"/>
<path d="M702 725 c-17 -36 -30 -65 -27 -65 4 0 62 32 104 57 l23 15 -28 29
c-15 16 -30 29 -34 29 -3 0 -20 -29 -38 -65z"/>
<path d="M1500 249 l0 -74 39 60 c22 33 36 63 32 67 -4 4 -21 11 -39 14 l-32
7 0 -74z"/>
<path d="M2442 310 l-23 -10 38 -57 c40 -60 39 -61 45 30 3 42 1 47 -17 46
-11 0 -30 -4 -43 -9z"/>
<path d="M1997 252 c-59 -3 -67 -5 -63 -20 27 -95 69 -223 71 -220 6 7 66 229
63 236 -2 4 -34 6 -71 4z"/>
</g>
</svg>
